<svg width="55" height="55" viewBox="0 0 55 55" fill="none" xmlns="http://www.w3.org/2000/svg">
<path d="M32.903 6.25709C28.3475 6.03556 25.8378 10.172 25.1523 12.268L25.4687 34.9665C25.3105 38.3146 26.6392 44.8288 33.2194 44.1012C39.7996 43.3736 41.0756 37.7082 40.891 34.9665C41.8006 34.7687 46.2691 32.5938 47.0995 26.1085C47.7639 20.9203 43.2373 17.9887 40.891 17.1715V16.3806V13.7311C40.891 10.4489 38.5975 6.534 32.903 6.25709Z" fill="#0FE3AF"/>
<path d="M25.1113 34.5406V15.6548" stroke="#0152A8" stroke-width="2" stroke-linecap="round" stroke-linejoin="round"/>
<path d="M17.2431 28.2456C18.7995 28.2456 20.3209 28.7071 21.615 29.5718C22.909 30.4365 23.9177 31.6654 24.5132 33.1033C25.1088 34.5412 25.2647 36.1234 24.961 37.6499C24.6574 39.1764 23.908 40.5785 22.8074 41.679C21.7069 42.7795 20.3048 43.529 18.7783 43.8326C17.2519 44.1363 15.6696 43.9804 14.2318 43.3848C12.7939 42.7892 11.5649 41.7806 10.7002 40.4866C9.83554 39.1925 9.37402 37.6711 9.37402 36.1147V34.7966" stroke="#0152A8" stroke-width="2" stroke-linecap="round" stroke-linejoin="round"/>
<path d="M32.9804 28.2456C31.4241 28.2456 29.9027 28.7071 28.6086 29.5718C27.3145 30.4365 26.3059 31.6654 25.7103 33.1033C25.1147 34.5412 24.9589 36.1234 25.2625 37.6499C25.5662 39.1764 26.3156 40.5785 27.4161 41.679C28.5167 42.7795 29.9188 43.529 31.4453 43.8326C32.9717 44.1363 34.5539 43.9804 35.9918 43.3848C37.4297 42.7892 38.6587 41.7806 39.5234 40.4866C40.388 39.1925 40.8496 37.6711 40.8496 36.1147V34.7966" stroke="#0152A8" stroke-width="2" stroke-linecap="round" stroke-linejoin="round"/>
<path d="M14.0949 35.3271H12.521C10.289 35.3331 8.12701 34.5483 6.41862 33.1118C4.71022 31.6754 3.56588 29.6802 3.18862 27.4803C2.81135 25.2804 3.22556 23.0179 4.35774 21.0944C5.48993 19.1708 7.26689 17.7105 9.37339 16.9724V14.0805C9.37339 11.9935 10.2024 9.99198 11.6782 8.51623C13.1539 7.04049 15.1555 6.21143 17.2425 6.21143C19.3295 6.21143 21.3311 7.04049 22.8068 8.51623C24.2825 9.99198 25.1116 11.9935 25.1116 14.0805V36.114" stroke="#0152A8" stroke-width="2" stroke-linecap="round" stroke-linejoin="round"/>
<path d="M36.1281 35.3271H37.7019C39.9339 35.3331 42.0959 34.5483 43.8043 33.1118C45.5127 31.6754 46.6571 29.6802 47.0343 27.4803C47.4116 25.2804 46.9974 23.0179 45.8652 21.0944C44.733 19.1708 42.956 17.7105 40.8495 16.9724V14.0805C40.8495 11.9935 40.0205 9.99198 38.5447 8.51623C37.069 7.04049 35.0675 6.21143 32.9804 6.21143C30.8934 6.21143 28.8919 7.04049 27.4161 8.51623C25.9404 9.99198 25.1113 11.9935 25.1113 14.0805" stroke="#0152A8" stroke-width="2" stroke-linecap="round" stroke-linejoin="round"/>
<path d="M17.2428 16.4417V18.0155C17.2428 19.4764 16.6624 20.8775 15.6294 21.9105C14.5964 22.9435 13.1953 23.5238 11.7344 23.5238" stroke="#0152A8" stroke-width="2" stroke-linecap="round" stroke-linejoin="round"/>
<path d="M32.9814 16.4419V18.0157C32.9814 19.4766 33.5618 20.8777 34.5948 21.9107C35.6278 22.9437 37.0289 23.5241 38.4898 23.5241" stroke="#0152A8" stroke-width="2" stroke-linecap="round" stroke-linejoin="round"/>
</svg>
