<svg width="55" height="54" viewBox="0 0 55 54" fill="none" xmlns="http://www.w3.org/2000/svg">
<path d="M27.486 17.4252L27.486 17.4252C29.3844 13.6491 29.5702 9.48677 29.396 6.84571L29.395 6.83183L29.3945 6.81793C29.3702 6.1784 29.1788 5.41533 28.8869 4.69017C28.5933 3.96079 28.2328 3.35624 27.9329 3.01255L27.9317 3.01118C27.6245 2.65791 27.1537 2.28362 26.6269 1.97483C26.1067 1.66987 25.6069 1.47277 25.2464 1.40463C24.3512 1.29844 22.3393 1.29882 20.9229 1.52419L20.91 1.52624L20.8971 1.52795L15.4111 2.25464L15.2797 2.27204L15.1483 2.25463L9.66567 1.52794L9.65585 1.52664L9.64606 1.52514C8.16747 1.29928 6.21779 1.29805 5.25779 1.40453C4.92714 1.47276 4.44497 1.6677 3.93258 1.97208C3.41005 2.28246 2.93875 2.65769 2.6324 3.01137L2.62927 3.015L2.62926 3.01499C2.32869 3.35866 1.96793 3.9636 1.66549 4.69836C1.36793 5.4213 1.15991 6.18993 1.10723 6.84328C0.988505 9.50217 1.17831 13.6623 3.01701 17.4358L3.01723 17.4363L3.01726 17.4363L3.01906 17.4401L3.02422 17.4507L3.04023 17.4846C3.05336 17.5128 3.07128 17.5519 3.0933 17.6018C3.13734 17.7015 3.1978 17.8442 3.2691 18.0275C3.41167 18.3939 3.59789 18.9232 3.78288 19.5961C4.1527 20.9414 4.519 22.8658 4.519 25.2127C4.519 26.0874 4.44478 27.1932 4.36447 28.3655L4.35556 28.4956C4.27668 29.6459 4.19228 30.877 4.15484 32.1004C4.11594 33.3713 4.12885 34.6065 4.24637 35.7022C4.365 36.8081 4.58323 37.6985 4.90924 38.326M27.486 17.4252L4.91147 38.3303C4.91072 38.3289 4.90999 38.3274 4.90924 38.326M27.486 17.4252L27.4822 17.4329L28.3795 17.8744C27.4822 17.4329 27.482 17.4332 27.4819 17.4335L27.4816 17.4342L27.4809 17.4357L27.479 17.4394L27.4739 17.4501L27.4578 17.484C27.4447 17.5122 27.4267 17.5513 27.4047 17.6012C27.3606 17.7009 27.3 17.8436 27.2286 18.0268C27.0858 18.3931 26.8994 18.9223 26.7142 19.5952C26.3439 20.9403 25.9771 22.8648 25.9771 25.2127C25.9771 25.6715 25.9829 26.1838 25.9891 26.7354C26.0061 28.2409 26.0263 30.0389 25.9415 31.8411C25.8245 34.3265 25.5116 36.5934 24.8306 37.963C24.8305 37.9626 24.8287 37.9643 24.8249 37.9677C24.7955 37.9952 24.6447 38.1353 24.1968 38.2763C23.7265 38.4243 23.1126 38.5132 22.481 38.5199C21.846 38.5267 21.2614 38.4499 20.8413 38.3133C20.519 38.2085 20.4165 38.1127 20.3938 38.0912C20.0464 36.8623 19.7863 35.1446 19.5514 33.1952C19.4462 32.3229 19.3432 31.3751 19.239 30.4176C19.1158 29.285 18.9912 28.1387 18.8599 27.0879C18.6126 25.1091 18.3153 23.2194 17.8802 21.8137C17.6644 21.1166 17.3917 20.4591 17.0211 19.9593C16.6468 19.4545 16.0721 18.9881 15.2783 18.9963C14.5031 18.9879 13.9124 19.4257 13.5035 19.9065C13.0916 20.3906 12.7574 21.0356 12.4746 21.733C11.9057 23.1364 11.4397 25.0243 11.0308 27.0095C10.7155 28.5399 10.4257 30.1725 10.1479 31.7374C10.0637 32.2118 9.98057 32.68 9.89818 33.1373C9.54345 35.1061 9.20469 36.857 8.84478 38.1165C8.83654 38.1258 8.75595 38.2504 8.40223 38.3998C8.02647 38.5585 7.50679 38.6702 6.94341 38.7033C6.38104 38.7363 5.84249 38.6869 5.43499 38.5734C5.05313 38.4671 4.93338 38.3488 4.91246 38.3282C4.90922 38.325 4.90835 38.3241 4.90924 38.326M27.486 17.4252L4.90924 38.326" fill="#0FE3AF" stroke="#0152A8" stroke-width="2"/>
<path d="M22.8214 6.66909L22.689 14.6177" stroke="#0152A8" stroke-width="2" stroke-linecap="round" stroke-linejoin="round"/>
</svg>
