<svg width="56" height="55" viewBox="0 0 56 55" fill="none" xmlns="http://www.w3.org/2000/svg">
<path d="M30.4935 12.8665L11.3188 32.0411C11.1622 32.1985 11.0381 32.3853 10.9538 32.5907C10.8694 32.7961 10.8264 33.0161 10.8272 33.2382V44.5036H22.0925C22.3146 44.5043 22.5346 44.4613 22.74 44.3769C22.9454 44.2926 23.1322 44.1685 23.2896 44.0119L42.4643 24.8372" fill="#0FE3AF"/>
<path d="M30.4935 12.8665L11.3188 32.0411C11.1622 32.1985 11.0381 32.3853 10.9538 32.5907C10.8694 32.7961 10.8264 33.0161 10.8272 33.2382V44.5036H22.0925C22.3146 44.5043 22.5346 44.4613 22.74 44.3769C22.9454 44.2926 23.1322 44.1685 23.2896 44.0119L42.4643 24.8372" stroke="#0152A8" stroke-width="2" stroke-linecap="round" stroke-linejoin="round"/>
<path d="M39.8994 5.1709L50.1601 15.4316" stroke="#0152A8" stroke-width="2" stroke-linecap="round" stroke-linejoin="round"/>
<path d="M27.9277 10.301L45.0289 27.4022" stroke="#0152A8" stroke-width="2" stroke-linecap="round" stroke-linejoin="round"/>
<path d="M22.3701 20.9895L27.928 26.5474" stroke="#0152A8" stroke-width="2" stroke-linecap="round" stroke-linejoin="round"/>
<path d="M16.3848 26.9749L21.9426 32.5327" stroke="#0152A8" stroke-width="2" stroke-linecap="round" stroke-linejoin="round"/>
<path d="M36.4785 18.8516L45.0291 10.301" stroke="#0152A8" stroke-width="2" stroke-linecap="round" stroke-linejoin="round"/>
<path d="M10.8276 44.5037L5.69727 49.634" stroke="#0152A8" stroke-width="2" stroke-linecap="round" stroke-linejoin="round"/>
</svg>
