<svg width="49" height="50" viewBox="0 0 49 50" fill="none" xmlns="http://www.w3.org/2000/svg">
<path d="M18.1948 17.6323L7.489 28.3716C3.6669 32.1937 3.66383 38.3875 7.48213 42.2058C11.3004 46.0241 17.4942 46.021 21.3163 42.1989L31.4495 31.9278L24.3016 24.3637L18.1948 17.6323Z" fill="#0FE3AF" stroke="#0152A8" stroke-width="2" stroke-linecap="round" stroke-linejoin="round"/>
<path d="M28.2199 7.64021L7.48888 28.3712C3.66678 32.1933 3.66371 38.3871 7.48201 42.2054C11.3003 46.0237 17.4941 46.0206 21.3162 42.1985L42.0472 21.4675C45.8693 17.6454 45.8724 11.4516 42.0541 7.63333C38.2358 3.81503 32.042 3.81811 28.2199 7.64021Z" stroke="#0152A8" stroke-width="2" stroke-linecap="round" stroke-linejoin="round"/>
<path d="M17.8496 18.0215L31.6769 31.8487" stroke="#0152A8" stroke-width="2" stroke-linecap="round" stroke-linejoin="round"/>
<path d="M31.6982 21.4989L36.9699 16.4001" stroke="#0152A8" stroke-width="2" stroke-linecap="round" stroke-linejoin="round"/>
</svg>
