<svg width="175" height="58" viewBox="0 0 175 58" fill="none" xmlns="http://www.w3.org/2000/svg">
<rect x="13.5176" y="45.21" width="52.1096" height="25.1975" rx="12.5988" transform="rotate(-60 13.5176 45.21)" fill="#0152A8"/>
<rect x="26.0547" y="57.9189" width="52.1096" height="25.1975" rx="12.5988" transform="rotate(-120 26.0547 57.9189)" fill="#0FE3AF"/>
<path d="M19.7468 34.3827C16.2556 40.4162 18.3336 48.1348 24.3882 51.6226C30.4428 55.1104 38.1812 53.0467 41.6724 47.0132L41.8104 46.7747C43.8123 43.0528 43.8972 38.4167 41.6268 34.4932L30.6436 15.5142L19.7468 34.3827Z" fill="#3DB8ED"/>
<path d="M66.5455 39.5V17.6818H74.7274C76.4035 17.6818 77.8097 17.9943 78.9461 18.6193C80.0896 19.2443 80.9525 20.1037 81.5349 21.1974C82.1244 22.2841 82.4191 23.5199 82.4191 24.9048C82.4191 26.304 82.1244 27.5469 81.5349 28.6335C80.9454 29.7202 80.0754 30.576 78.9248 31.201C77.7742 31.8189 76.3573 32.1278 74.6741 32.1278H69.2515V28.8786H74.1414C75.1215 28.8786 75.9241 28.7081 76.5491 28.3672C77.1741 28.0263 77.6357 27.5575 77.934 26.9609C78.2394 26.3643 78.3921 25.679 78.3921 24.9048C78.3921 24.1307 78.2394 23.4489 77.934 22.8594C77.6357 22.2699 77.1705 21.8118 76.5384 21.4851C75.9134 21.1513 75.1073 20.9844 74.1201 20.9844H70.498V39.5H66.5455ZM89.5383 29.9119V39.5H85.6817V17.6818H89.453V25.9169H89.6448C90.0283 24.9936 90.6214 24.2656 91.4239 23.733C92.2336 23.1932 93.2634 22.9233 94.5134 22.9233C95.6498 22.9233 96.6405 23.1612 97.4857 23.6371C98.3309 24.1129 98.9843 24.8089 99.4459 25.7251C99.9147 26.6413 100.149 27.7599 100.149 29.081V39.5H96.2925V29.6776C96.2925 28.5767 96.0084 27.7209 95.4403 27.1101C94.8792 26.4922 94.0908 26.1832 93.0752 26.1832C92.3934 26.1832 91.7826 26.3324 91.2428 26.6307C90.7101 26.9219 90.2911 27.3445 89.9857 27.8984C89.6874 28.4524 89.5383 29.1236 89.5383 29.9119ZM108.789 39.8303C107.752 39.8303 106.818 39.6456 105.987 39.2763C105.163 38.8999 104.51 38.3459 104.027 37.6143C103.551 36.8828 103.313 35.9808 103.313 34.9084C103.313 33.9851 103.484 33.2216 103.824 32.6179C104.165 32.0142 104.631 31.5312 105.22 31.169C105.81 30.8068 106.474 30.5334 107.212 30.3487C107.958 30.157 108.729 30.0185 109.524 29.9332C110.483 29.8338 111.261 29.745 111.857 29.6669C112.454 29.5817 112.887 29.4538 113.157 29.2834C113.434 29.1058 113.572 28.8324 113.572 28.4631V28.3991C113.572 27.5966 113.334 26.9751 112.859 26.5348C112.383 26.0945 111.697 25.8743 110.802 25.8743C109.858 25.8743 109.109 26.0803 108.555 26.4922C108.008 26.9041 107.638 27.3906 107.447 27.9517L103.846 27.4403C104.13 26.446 104.599 25.6151 105.252 24.9474C105.905 24.2727 106.704 23.7685 107.649 23.4347C108.594 23.0938 109.638 22.9233 110.781 22.9233C111.57 22.9233 112.354 23.0156 113.136 23.2003C113.917 23.3849 114.631 23.6903 115.277 24.1165C115.923 24.5355 116.442 25.1072 116.832 25.8317C117.23 26.5561 117.429 27.4616 117.429 28.5483V39.5H113.722V37.2521H113.594C113.359 37.7067 113.029 38.1328 112.603 38.5305C112.184 38.9212 111.655 39.2372 111.016 39.4787C110.383 39.7131 109.641 39.8303 108.789 39.8303ZM109.79 36.9964C110.565 36.9964 111.236 36.8437 111.804 36.5384C112.372 36.2259 112.809 35.8139 113.114 35.3026C113.427 34.7912 113.583 34.2337 113.583 33.63V31.7017C113.462 31.8011 113.256 31.8935 112.965 31.9787C112.681 32.0639 112.361 32.1385 112.006 32.2024C111.651 32.2663 111.3 32.3232 110.952 32.3729C110.604 32.4226 110.302 32.4652 110.046 32.5007C109.471 32.5788 108.956 32.7067 108.501 32.8842C108.047 33.0618 107.688 33.3104 107.425 33.63C107.163 33.9425 107.031 34.3473 107.031 34.8445C107.031 35.5547 107.29 36.0909 107.809 36.4531C108.327 36.8153 108.988 36.9964 109.79 36.9964ZM121.307 39.5V23.1364H125.046V25.8636H125.217C125.515 24.919 126.026 24.1911 126.751 23.6797C127.482 23.1612 128.317 22.902 129.254 22.902C129.467 22.902 129.705 22.9126 129.968 22.9339C130.238 22.9482 130.462 22.973 130.639 23.0085V26.5561C130.476 26.4993 130.217 26.4496 129.861 26.407C129.513 26.3572 129.176 26.3324 128.849 26.3324C128.146 26.3324 127.514 26.4851 126.953 26.7905C126.399 27.0888 125.962 27.5043 125.643 28.0369C125.323 28.5696 125.163 29.1839 125.163 29.88V39.5H121.307ZM133.201 39.5V23.1364H136.887V25.9169H137.079C137.42 24.9794 137.985 24.2479 138.773 23.7223C139.561 23.1896 140.502 22.9233 141.596 22.9233C142.704 22.9233 143.638 23.1932 144.398 23.733C145.165 24.2656 145.705 24.9936 146.017 25.9169H146.188C146.55 25.0078 147.161 24.2834 148.02 23.7436C148.887 23.1967 149.913 22.9233 151.099 22.9233C152.605 22.9233 153.833 23.3991 154.785 24.3509C155.737 25.3026 156.213 26.6911 156.213 28.5163V39.5H152.345V29.1129C152.345 28.0973 152.076 27.3551 151.536 26.8864C150.996 26.4105 150.335 26.1726 149.554 26.1726C148.624 26.1726 147.896 26.4638 147.37 27.0462C146.852 27.6214 146.593 28.3707 146.593 29.294V39.5H142.811V28.9531C142.811 28.108 142.555 27.4332 142.044 26.929C141.539 26.4247 140.879 26.1726 140.062 26.1726C139.508 26.1726 139.004 26.3146 138.549 26.5987C138.095 26.8757 137.733 27.2699 137.463 27.7812C137.193 28.2855 137.058 28.875 137.058 29.5497V39.5H133.201ZM164.834 39.8303C163.797 39.8303 162.863 39.6456 162.032 39.2763C161.208 38.8999 160.555 38.3459 160.072 37.6143C159.596 36.8828 159.358 35.9808 159.358 34.9084C159.358 33.9851 159.528 33.2216 159.869 32.6179C160.21 32.0142 160.676 31.5312 161.265 31.169C161.854 30.8068 162.519 30.5334 163.257 30.3487C164.003 30.157 164.774 30.0185 165.569 29.9332C166.528 29.8338 167.305 29.745 167.902 29.6669C168.499 29.5817 168.932 29.4538 169.202 29.2834C169.479 29.1058 169.617 28.8324 169.617 28.4631V28.3991C169.617 27.5966 169.379 26.9751 168.903 26.5348C168.428 26.0945 167.742 25.8743 166.847 25.8743C165.903 25.8743 165.153 26.0803 164.6 26.4922C164.053 26.9041 163.683 27.3906 163.492 27.9517L159.891 27.4403C160.175 26.446 160.644 25.6151 161.297 24.9474C161.95 24.2727 162.749 23.7685 163.694 23.4347C164.639 23.0938 165.683 22.9233 166.826 22.9233C167.614 22.9233 168.399 23.0156 169.18 23.2003C169.962 23.3849 170.676 23.6903 171.322 24.1165C171.968 24.5355 172.487 25.1072 172.877 25.8317C173.275 26.5561 173.474 27.4616 173.474 28.5483V39.5H169.766V37.2521H169.639C169.404 37.7067 169.074 38.1328 168.648 38.5305C168.229 38.9212 167.7 39.2372 167.06 39.4787C166.428 39.7131 165.686 39.8303 164.834 39.8303ZM165.835 36.9964C166.609 36.9964 167.281 36.8437 167.849 36.5384C168.417 36.2259 168.854 35.8139 169.159 35.3026C169.472 34.7912 169.628 34.2337 169.628 33.63V31.7017C169.507 31.8011 169.301 31.8935 169.01 31.9787C168.726 32.0639 168.406 32.1385 168.051 32.2024C167.696 32.2663 167.345 32.3232 166.997 32.3729C166.649 32.4226 166.347 32.4652 166.091 32.5007C165.516 32.5788 165.001 32.7067 164.546 32.8842C164.092 33.0618 163.733 33.3104 163.47 33.63C163.207 33.9425 163.076 34.3473 163.076 34.8445C163.076 35.5547 163.335 36.0909 163.854 36.4531C164.372 36.8153 165.033 36.9964 165.835 36.9964Z" fill="#1C1C1C"/>
</svg>
