<svg width="56" height="56" viewBox="0 0 56 56" fill="none" xmlns="http://www.w3.org/2000/svg">
<path d="M23.2412 39.9785C23.2412 39.9785 1.48438 27.7947 1.48438 13.0001C1.48438 10.3847 2.39053 7.85004 4.04868 5.82743C5.70683 3.80481 8.01453 2.41917 10.5792 1.90624C13.1438 1.39332 15.8069 1.7848 18.1154 3.01407C20.424 4.24335 22.2353 6.23449 23.2412 8.64873C24.2471 6.23449 26.0584 4.24335 28.367 3.01407C30.6755 1.7848 33.3386 1.39332 35.9032 1.90624C38.4679 2.41917 40.7756 3.80481 42.4337 5.82743C44.0919 7.85004 44.998 10.3847 44.998 13.0001C44.998 27.7947 23.2412 39.9785 23.2412 39.9785Z" fill="#0FE3AF" stroke="#0152A8" stroke-width="2" stroke-linecap="round" stroke-linejoin="round"/>
<path d="M2.35742 21.0459H11.0716L14.5573 15.8174L21.5286 26.2744L25.0143 21.0459H30.2428" stroke="#0152A8" stroke-width="2" stroke-linecap="round" stroke-linejoin="round"/>
</svg>
