<svg width="16" height="16" viewBox="0 0 16 16" fill="none" xmlns="http://www.w3.org/2000/svg">
<path d="M7.66323 11.1927C9.2549 11.1927 10.5452 9.90236 10.5452 8.31069C10.5452 6.71902 9.2549 5.42871 7.66323 5.42871C6.07156 5.42871 4.78125 6.71902 4.78125 8.31069C4.78125 9.90236 6.07156 11.1927 7.66323 11.1927Z" stroke="white" stroke-linecap="round" stroke-linejoin="round"/>
<path d="M11.4887 14.0746C10.2048 14.927 8.67308 15.3262 7.1365 15.209C5.59991 15.0917 4.14649 14.4646 3.00687 13.4273C1.86724 12.3899 1.10668 11.0017 0.845878 9.48285C0.585071 7.96402 0.838951 6.40159 1.56724 5.04349C2.29552 3.68538 3.45649 2.60938 4.86594 1.98623C6.27538 1.36307 7.85257 1.22846 9.34723 1.60374C10.8419 1.97902 12.1684 2.8427 13.1163 4.05774C14.0642 5.27278 14.5792 6.76958 14.5796 8.31063C14.5796 9.90293 14.0032 11.1926 12.5622 11.1926C11.1212 11.1926 10.5448 9.90293 10.5448 8.31063V5.42866" stroke="white" stroke-linecap="round" stroke-linejoin="round"/>
</svg>
