<svg width="20" height="16" viewBox="0 0 20 16" fill="none" xmlns="http://www.w3.org/2000/svg">
<path d="M15.5834 0.134751L2.64054 2.55845C2.06873 2.66614 1.56171 2.9894 1.23074 3.45728C0.899764 3.92517 0.771866 4.49947 0.875108 5.05418L2.55386 14.0189C2.65833 14.5734 2.98536 15.0625 3.46321 15.379C3.94105 15.6954 4.53068 15.8133 5.10272 15.7068L18.0456 13.2831C18.6174 13.1754 19.1244 12.8521 19.4554 12.3842C19.7864 11.9163 19.9143 11.342 19.811 10.7873L18.1323 1.82258C18.0278 1.2681 17.7008 0.778989 17.2229 0.462564C16.7451 0.146139 16.1554 0.0282451 15.5834 0.134751ZM15.6851 3.69706L10.9216 8.91934C10.8287 9.02114 10.7039 9.09033 10.5669 9.11598C10.4299 9.14164 10.2885 9.1223 10.1651 9.06101L3.83469 5.91619C3.76058 5.88067 3.69464 5.83111 3.6407 5.7704C3.58676 5.70968 3.5459 5.63902 3.52048 5.56252C3.49507 5.48602 3.48561 5.4052 3.49266 5.32476C3.49971 5.24433 3.52313 5.16588 3.56155 5.09397C3.59997 5.02207 3.65263 4.95814 3.71647 4.9059C3.78031 4.85367 3.85405 4.81417 3.93342 4.7897C4.01278 4.76523 4.09619 4.75628 4.17878 4.76336C4.26138 4.77045 4.34152 4.79343 4.41454 4.83098L10.3132 7.76126L14.7519 2.89519C14.8634 2.77634 15.0181 2.70441 15.1825 2.69494C15.3469 2.68548 15.5079 2.73924 15.6305 2.84461C15.7531 2.94998 15.8276 3.09848 15.8378 3.258C15.848 3.41753 15.7932 3.57525 15.6851 3.69706Z" fill="#0152A8"/>
</svg>
