<svg width="16" height="15" viewBox="0 0 16 15" fill="none" xmlns="http://www.w3.org/2000/svg">
<path d="M5.03463 7.85191C5.63206 9.08564 6.62967 10.0807 7.86493 10.675C7.95605 10.7181 8.05683 10.7368 8.15736 10.7291C8.25788 10.7215 8.35469 10.6878 8.43825 10.6314L10.2525 9.41946C10.3327 9.36509 10.4253 9.33192 10.5218 9.32304C10.6182 9.31415 10.7153 9.32985 10.8041 9.36866L14.2004 10.8274C14.3165 10.8757 14.4135 10.9608 14.4764 11.0696C14.5394 11.1785 14.5648 11.305 14.5488 11.4297C14.4411 12.2699 14.031 13.0421 13.3952 13.6018C12.7594 14.1614 11.9414 14.4703 11.0944 14.4705C8.47675 14.4705 5.96634 13.4306 4.1154 11.5797C2.26446 9.72873 1.22461 7.21832 1.22461 4.60069C1.2248 3.75363 1.53363 2.93566 2.09331 2.29984C2.65299 1.66402 3.42518 1.25392 4.26537 1.14627C4.39007 1.13026 4.51659 1.15568 4.62543 1.21862C4.73427 1.28156 4.8194 1.37854 4.86771 1.49462L6.32641 4.89824C6.36434 4.98558 6.38021 5.0809 6.37262 5.17582C6.36502 5.27074 6.3342 5.36233 6.28286 5.44253L5.07092 7.28585C5.01696 7.36922 4.98529 7.46504 4.97894 7.56415C4.97258 7.66325 4.99176 7.76233 5.03463 7.85191V7.85191Z" stroke="white" stroke-linecap="round" stroke-linejoin="round"/>
</svg>
