<svg width="25" height="24" viewBox="0 0 25 24" fill="none" xmlns="http://www.w3.org/2000/svg">
<path d="M11.9222 1.6086C12.2216 0.687287 13.525 0.687289 13.8244 1.6086L15.9828 8.25157C16.1167 8.66359 16.5006 8.94255 16.9338 8.94255L23.9187 8.94255C24.8874 8.94255 25.2902 10.1822 24.5065 10.7516L18.8556 14.8571C18.5051 15.1118 18.3585 15.5632 18.4923 15.9752L20.6508 22.6181C20.9501 23.5395 19.8956 24.3056 19.1119 23.7362L13.4611 19.6306C13.1106 19.376 12.636 19.376 12.2855 19.6306L6.63466 23.7362C5.85095 24.3056 4.79647 23.5395 5.09582 22.6181L7.25425 15.9752C7.38813 15.5632 7.24147 15.1118 6.89098 14.8571L1.24014 10.7516C0.456423 10.1822 0.859201 8.94255 1.82792 8.94255L8.81275 8.94255C9.24598 8.94255 9.62993 8.66359 9.76381 8.25156L11.9222 1.6086Z" fill="#FBB837"/>
</svg>
