<svg width="22" height="19" viewBox="0 0 22 19" fill="none" xmlns="http://www.w3.org/2000/svg">
<path d="M1.80406 5.19336C1.55963 4.91968 1.38537 4.59071 1.29628 4.23476C1.20718 3.8788 1.20593 3.50653 1.29262 3.14998C1.37931 2.79343 1.55134 2.46329 1.79392 2.18798C2.03649 1.91266 2.34234 1.70042 2.68513 1.56952C3.02793 1.43862 3.39739 1.39299 3.76173 1.43654C4.12607 1.4801 4.47437 1.61154 4.77665 1.81956C5.07892 2.02758 5.32612 2.30594 5.49696 2.63068C5.66779 2.95542 5.75716 3.31681 5.75735 3.68374V15.7606C5.75755 16.1276 5.84691 16.489 6.01775 16.8137C6.18859 17.1384 6.43579 17.4168 6.73806 17.6248C7.04034 17.8328 7.38863 17.9643 7.75297 18.0078C8.11732 18.0514 8.48678 18.0058 8.82958 17.8749C9.17237 17.744 9.47822 17.5317 9.72079 17.2564C9.96337 16.9811 10.1354 16.651 10.2221 16.2944C10.3088 15.9379 10.3075 15.5656 10.2184 15.2096C10.1293 14.8537 9.95508 14.5247 9.71065 14.251H20.2779C20.5694 14.5769 20.7603 14.9802 20.8276 15.4122C20.8949 15.8442 20.8356 16.2865 20.657 16.6856C20.4785 17.0847 20.1882 17.4235 19.8212 17.6612C19.4542 17.8989 19.0263 18.0253 18.5891 18.0251H8.02177" stroke="#0152A8" stroke-linecap="round" stroke-linejoin="round"/>
</svg>
