<svg width="42" height="35" viewBox="0 0 42 35" fill="none" xmlns="http://www.w3.org/2000/svg">
<path d="M17.3898 0.623109L11.0098 25.0431L9.24985 16.7931C11.8165 16.7931 13.9432 17.5998 15.6298 19.2131C17.3165 20.8264 18.1598 22.9898 18.1598 25.7031C18.1598 28.4164 17.3165 30.6164 15.6298 32.3031C13.9432 33.9164 11.8532 34.7231 9.35984 34.7231C6.71984 34.7231 4.55651 33.8798 2.86984 32.1931C1.18318 30.5064 0.339843 28.3431 0.339844 25.7031C0.339844 24.8231 0.376511 24.0164 0.449844 23.2831C0.596511 22.4764 0.853178 21.5231 1.21984 20.4231C1.58651 19.3231 2.09985 17.9298 2.75985 16.2431L8.58985 0.623108L17.3898 0.623109ZM40.7098 0.623114L34.3298 25.0431L32.5698 16.7931C35.1365 16.7931 37.2632 17.5998 38.9498 19.2131C40.6365 20.8265 41.4798 22.9898 41.4798 25.7031C41.4798 28.4165 40.6365 30.6164 38.9498 32.3031C37.2632 33.9165 35.1732 34.7231 32.6798 34.7231C30.0398 34.7231 27.8765 33.8798 26.1898 32.1931C24.5032 30.5064 23.6598 28.3431 23.6598 25.7031C23.6598 24.8231 23.6965 24.0164 23.7698 23.2831C23.9165 22.4764 24.1732 21.5231 24.5398 20.4231C24.9065 19.3231 25.4198 17.9298 26.0798 16.2431L31.9099 0.623112L40.7098 0.623114Z" fill="#0152A8"/>
</svg>
